<svg xmlns="http://www.w3.org/2000/svg" xmlns:xlink="http://www.w3.org/1999/xlink" viewBox="0 0 566.93 566.93"><ellipse cx="281.55" cy="282.56" rx="279.71" ry="279.73" fill="#6e559f"/><defs><path id="a" d="M1.07 307.92c.12 2.58.35 5.14.63 7.7.07.64.14 1.27.22 1.91.64 5.13 1.52 10.23 2.42 15.33 3.15 17.72 7.78 34.78 13.93 51.14.29.76.57 1.53.87 2.29.38.99.79 1.98 1.19 2.97 4.1 10.14 8.76 20 13.97 29.51a261.743 261.743 0 0030.18 43.51C127.44 535.9 207.6 569.85 304.53 563.3c33.67-2.27 65.68-11.06 96.11-25.45 40.64-19.23 75.09-46.29 102.4-82.19-2.13-1.34-3.42.52-4.86 1.4-5.31 3.23-10.28 6.94-15.63 10.14-43.71 26.21-91.27 38.73-141.95 39.97-17.02.42-33.93-1.48-50.69-4.43-53.44-9.41-100.28-32.54-140.53-68.74-19.93-17.93-36.8-38.58-50.79-61.57-15.35-25.23-26.61-52.09-33.31-80.82-6.04-25.9-9.01-52-7.34-78.77 1.22-19.63 3.59-38.97 8.58-57.9C74.89 123.21 88.1 93.59 107 66.61c1.05-1.5 3.1-2.92 1.72-5.31-1.38 1.05-2.72 2.13-4.08 3.2C48.23 110.11 9.79 177.04 1.56 253.03c-.16 1.62-.33 3.24-.46 4.87-.03.39-.04.79-.12 1.16-.49 5.61-.83 11.27-.98 16.97v15.39c.14 5.22.43 10.41.85 15.56.14.27.2.59.22.94z"/></defs><clipPath id="b"><use xlink:href="#a" overflow="visible"/></clipPath><ellipse cx="281.55" cy="282.56" rx="279.71" ry="279.73" clip-path="url(#b)" fill="#634695"/><path d="M387.86 116.74c38.25 24.57 64.9 58.36 80.13 101.23 4.62 12.99 6.71 26.54 10.04 39.81 2.82 11.23 13.48 16.76 24.85 14.14 10.02-2.31 16.72-12.18 15.34-22.89-.66-5.07-1.48-10.14-2.6-15.12-14.88-66.22-50.86-117.67-108.08-154.22-4.23-2.71-8.64-4.85-13.2-4.16-12.9.03-20.82 8.1-20.97 20.32-.12 10.5 6.66 15.86 14.49 20.89zM260.57 67.69c1.89 10.41 10.37 17.67 21.33 17.71 9.16.03 18.21.87 27.26 2.16 6.67.94 13.43 2.45 20.1.54 9-2.57 14.89-11.41 14.46-20.93-.4-8.78-7.37-17.05-16.4-18.91-13.79-2.84-27.82-3.73-41.08-4.58-4.39.24-8.04-.31-11.59 1.12-9.71 3.92-15.76 13.64-14.08 22.89z" fill="#8570b0"/><path d="M306.27 149.35c13.3 2.35 26.08 6.37 38.4 11.89.87.4 1.73.81 2.6 1.21 1.47 1.46 3.26 2.36 5.24 2.89 13.25 8.36 25.12 18.32 35.08 30.47.76 1.07 1.49 2.15 2.27 3.19 11.9 16 19.28 33.97 23.53 53.36.95 4.34.07 5.69-4.71 5.61-18.98-.31-37.97-.4-56.95.01-6.27.14-11.06-.5-12.73-7.43-4.44-10.53-11.27-19.09-20.86-25.4-19.15-13.37-39.77-14.68-60.47-5.24-23.59 10.77-34.6 30.94-36.93 56.05-1.43 15.36.53 30.31 8.64 43.92 2.28 5.33 5.62 9.88 9.92 13.75 11.71 12.58 26.22 18.61 43.33 18.58 27.78 1.5 54.28-19.21 59.05-46.16 3.42-2.2 7.27-.32 10.84-1.16 19.3.05 38.6.23 57.9.06 4.06-.04 4.76 1.37 3.93 4.8-1.62 6.63-3.15 13.27-4.72 19.91-.32.56-.73 1.08-.94 1.68-10.21 29-27.62 52.3-54.08 68.47-9.57 5.85-19.74 10.27-30.44 13.55-10.69 3.27-21.75 4.47-32.77 5.83-12.14.15-24.25-.31-36.15-2.84-11.23-2.39-22.36-5.08-32.77-10.32-8.49-4.27-16.44-9.37-24.47-14.39l.02.03c-.83-1.71-2.55-2.39-3.98-3.42-2.36-2.12-4.72-4.24-7.09-6.36-14.16-13.73-24.74-30.01-32.01-48.16-5.15-12.86-8.41-26.45-8.36-40.54 0-6.52.01-13.05.01-19.57 1.18-29.21 11.99-54.71 29.81-77.52 6.67-6.48 12.82-13.47 20.19-19.27 12.17-9.58 25.6-16.68 40.27-21.48 5.38-1.76 10.86-3.23 16.3-4.83 5.66-.68 11.32-1.29 16.97-2.06 12.09-1.64 24.11-.29 36.13.89z" fill="#fafafa"/></svg>